<svg width="290" height="62" viewBox="0 0 290 62" fill="none" xmlns="http://www.w3.org/2000/svg">
<g filter="url(#filter0_dd_296_847)">
<rect x="3" y="3" width="284" height="54" rx="10" fill="white"/>
<rect width="24" height="24" transform="translate(18 18)" fill="white"/>
<path fill-rule="evenodd" clip-rule="evenodd" d="M41.04 30.2614C41.04 29.4459 40.9668 28.6618 40.8309 27.9091H30V32.3575H36.1891C35.9225 33.795 35.1123 35.013 33.8943 35.8284V38.7139H37.6109C39.7855 36.7118 41.04 33.7636 41.04 30.2614Z" fill="#4285F4"/>
<path fill-rule="evenodd" clip-rule="evenodd" d="M29.9999 41.4998C33.1049 41.4998 35.7081 40.4701 37.6108 38.7137L33.8942 35.8282C32.8644 36.5182 31.5472 36.926 29.9999 36.926C27.0047 36.926 24.4694 34.903 23.5651 32.1848H19.7231V35.1644C21.6154 38.9228 25.5044 41.4998 29.9999 41.4998Z" fill="#34A853"/>
<path fill-rule="evenodd" clip-rule="evenodd" d="M23.5652 32.1851C23.3352 31.4951 23.2045 30.758 23.2045 30.0001C23.2045 29.2421 23.3352 28.5051 23.5652 27.8151V24.8355H19.7232C18.9443 26.388 18.5 28.1444 18.5 30.0001C18.5 31.8557 18.9443 33.6121 19.7232 35.1646L23.5652 32.1851Z" fill="#FBBC05"/>
<path fill-rule="evenodd" clip-rule="evenodd" d="M29.9999 23.0739C31.6883 23.0739 33.2042 23.6541 34.396 24.7936L37.6944 21.4952C35.7029 19.6395 33.0997 18.5 29.9999 18.5C25.5044 18.5 21.6154 21.077 19.7231 24.8355L23.5651 27.815C24.4694 25.0968 27.0047 23.0739 29.9999 23.0739Z" fill="#EA4335"/>
<path d="M61.74 35.105C60.97 35.105 60.28 34.98 59.67 34.73C59.06 34.48 58.57 34.11 58.2 33.62C57.84 33.13 57.65 32.54 57.63 31.85H60.36C60.4 32.24 60.535 32.54 60.765 32.75C60.995 32.95 61.295 33.05 61.665 33.05C62.045 33.05 62.345 32.965 62.565 32.795C62.785 32.615 62.895 32.37 62.895 32.06C62.895 31.8 62.805 31.585 62.625 31.415C62.455 31.245 62.24 31.105 61.98 30.995C61.73 30.885 61.37 30.76 60.9 30.62C60.22 30.41 59.665 30.2 59.235 29.99C58.805 29.78 58.435 29.47 58.125 29.06C57.815 28.65 57.66 28.115 57.66 27.455C57.66 26.475 58.015 25.71 58.725 25.16C59.435 24.6 60.36 24.32 61.5 24.32C62.66 24.32 63.595 24.6 64.305 25.16C65.015 25.71 65.395 26.48 65.445 27.47H62.67C62.65 27.13 62.525 26.865 62.295 26.675C62.065 26.475 61.77 26.375 61.41 26.375C61.1 26.375 60.85 26.46 60.66 26.63C60.47 26.79 60.375 27.025 60.375 27.335C60.375 27.675 60.535 27.94 60.855 28.13C61.175 28.32 61.675 28.525 62.355 28.745C63.035 28.975 63.585 29.195 64.005 29.405C64.435 29.615 64.805 29.92 65.115 30.32C65.425 30.72 65.58 31.235 65.58 31.865C65.58 32.465 65.425 33.01 65.115 33.5C64.815 33.99 64.375 34.38 63.795 34.67C63.215 34.96 62.53 35.105 61.74 35.105ZM68.4485 25.76C67.9985 25.76 67.6285 25.63 67.3385 25.37C67.0585 25.1 66.9185 24.77 66.9185 24.38C66.9185 23.98 67.0585 23.65 67.3385 23.39C67.6285 23.12 67.9985 22.985 68.4485 22.985C68.8885 22.985 69.2485 23.12 69.5285 23.39C69.8185 23.65 69.9635 23.98 69.9635 24.38C69.9635 24.77 69.8185 25.1 69.5285 25.37C69.2485 25.63 68.8885 25.76 68.4485 25.76ZM69.7235 26.63V35H67.1585V26.63H69.7235ZM74.7623 26.51C75.3523 26.51 75.8673 26.63 76.3073 26.87C76.7573 27.11 77.1023 27.425 77.3423 27.815V26.63H79.9073V34.985C79.9073 35.755 79.7523 36.45 79.4423 37.07C79.1423 37.7 78.6773 38.2 78.0473 38.57C77.4273 38.94 76.6523 39.125 75.7223 39.125C74.4823 39.125 73.4773 38.83 72.7073 38.24C71.9373 37.66 71.4973 36.87 71.3873 35.87H73.9223C74.0023 36.19 74.1923 36.44 74.4923 36.62C74.7923 36.81 75.1623 36.905 75.6023 36.905C76.1323 36.905 76.5523 36.75 76.8623 36.44C77.1823 36.14 77.3423 35.655 77.3423 34.985V33.8C77.0923 34.19 76.7473 34.51 76.3073 34.76C75.8673 35 75.3523 35.12 74.7623 35.12C74.0723 35.12 73.4473 34.945 72.8873 34.595C72.3273 34.235 71.8823 33.73 71.5523 33.08C71.2323 32.42 71.0723 31.66 71.0723 30.8C71.0723 29.94 71.2323 29.185 71.5523 28.535C71.8823 27.885 72.3273 27.385 72.8873 27.035C73.4473 26.685 74.0723 26.51 74.7623 26.51ZM77.3423 30.815C77.3423 30.175 77.1623 29.67 76.8023 29.3C76.4523 28.93 76.0223 28.745 75.5123 28.745C75.0023 28.745 74.5673 28.93 74.2073 29.3C73.8573 29.66 73.6823 30.16 73.6823 30.8C73.6823 31.44 73.8573 31.95 74.2073 32.33C74.5673 32.7 75.0023 32.885 75.5123 32.885C76.0223 32.885 76.4523 32.7 76.8023 32.33C77.1623 31.96 77.3423 31.455 77.3423 30.815ZM86.863 26.54C87.843 26.54 88.623 26.86 89.203 27.5C89.793 28.13 90.088 29 90.088 30.11V35H87.538V30.455C87.538 29.895 87.393 29.46 87.103 29.15C86.813 28.84 86.423 28.685 85.933 28.685C85.443 28.685 85.053 28.84 84.763 29.15C84.473 29.46 84.328 29.895 84.328 30.455V35H81.763V26.63H84.328V27.74C84.588 27.37 84.938 27.08 85.378 26.87C85.818 26.65 86.313 26.54 86.863 26.54ZM97.6141 24.47V35H95.0491V24.47H97.6141ZM104.573 26.54C105.553 26.54 106.333 26.86 106.913 27.5C107.503 28.13 107.798 29 107.798 30.11V35H105.248V30.455C105.248 29.895 105.103 29.46 104.813 29.15C104.523 28.84 104.133 28.685 103.643 28.685C103.153 28.685 102.763 28.84 102.473 29.15C102.183 29.46 102.038 29.895 102.038 30.455V35H99.473V26.63H102.038V27.74C102.298 27.37 102.648 27.08 103.088 26.87C103.528 26.65 104.023 26.54 104.573 26.54ZM124.774 26.63L122.509 35H119.674L118.354 29.57L116.989 35H114.169L111.889 26.63H114.454L115.639 32.615L117.049 26.63H119.764L121.189 32.585L122.359 26.63H124.774ZM127.042 25.76C126.592 25.76 126.222 25.63 125.932 25.37C125.652 25.1 125.512 24.77 125.512 24.38C125.512 23.98 125.652 23.65 125.932 23.39C126.222 23.12 126.592 22.985 127.042 22.985C127.482 22.985 127.842 23.12 128.122 23.39C128.412 23.65 128.557 23.98 128.557 24.38C128.557 24.77 128.412 25.1 128.122 25.37C127.842 25.63 127.482 25.76 127.042 25.76ZM128.317 26.63V35H125.752V26.63H128.317ZM134.841 32.825V35H133.536C132.606 35 131.881 34.775 131.361 34.325C130.841 33.865 130.581 33.12 130.581 32.09V28.76H129.561V26.63H130.581V24.59H133.146V26.63H134.826V28.76H133.146V32.12C133.146 32.37 133.206 32.55 133.326 32.66C133.446 32.77 133.646 32.825 133.926 32.825H134.841ZM141.415 26.54C142.375 26.54 143.145 26.86 143.725 27.5C144.305 28.13 144.595 29 144.595 30.11V35H142.045V30.455C142.045 29.895 141.9 29.46 141.61 29.15C141.32 28.84 140.93 28.685 140.44 28.685C139.95 28.685 139.56 28.84 139.27 29.15C138.98 29.46 138.835 29.895 138.835 30.455V35H136.27V23.9H138.835V27.755C139.095 27.385 139.45 27.09 139.9 26.87C140.35 26.65 140.855 26.54 141.415 26.54ZM156.546 27.8C156.356 27.45 156.081 27.185 155.721 27.005C155.371 26.815 154.956 26.72 154.476 26.72C153.646 26.72 152.981 26.995 152.481 27.545C151.981 28.085 151.731 28.81 151.731 29.72C151.731 30.69 151.991 31.45 152.511 32C153.041 32.54 153.766 32.81 154.686 32.81C155.316 32.81 155.846 32.65 156.276 32.33C156.716 32.01 157.036 31.55 157.236 30.95H153.981V29.06H159.561V31.445C159.371 32.085 159.046 32.68 158.586 33.23C158.136 33.78 157.561 34.225 156.861 34.565C156.161 34.905 155.371 35.075 154.491 35.075C153.451 35.075 152.521 34.85 151.701 34.4C150.891 33.94 150.256 33.305 149.796 32.495C149.346 31.685 149.121 30.76 149.121 29.72C149.121 28.68 149.346 27.755 149.796 26.945C150.256 26.125 150.891 25.49 151.701 25.04C152.511 24.58 153.436 24.35 154.476 24.35C155.736 24.35 156.796 24.655 157.656 25.265C158.526 25.875 159.101 26.72 159.381 27.8H156.546ZM164.792 35.12C163.972 35.12 163.232 34.945 162.572 34.595C161.922 34.245 161.407 33.745 161.027 33.095C160.657 32.445 160.472 31.685 160.472 30.815C160.472 29.955 160.662 29.2 161.042 28.55C161.422 27.89 161.942 27.385 162.602 27.035C163.262 26.685 164.002 26.51 164.822 26.51C165.642 26.51 166.382 26.685 167.042 27.035C167.702 27.385 168.222 27.89 168.602 28.55C168.982 29.2 169.172 29.955 169.172 30.815C169.172 31.675 168.977 32.435 168.587 33.095C168.207 33.745 167.682 34.245 167.012 34.595C166.352 34.945 165.612 35.12 164.792 35.12ZM164.792 32.9C165.282 32.9 165.697 32.72 166.037 32.36C166.387 32 166.562 31.485 166.562 30.815C166.562 30.145 166.392 29.63 166.052 29.27C165.722 28.91 165.312 28.73 164.822 28.73C164.322 28.73 163.907 28.91 163.577 29.27C163.247 29.62 163.082 30.135 163.082 30.815C163.082 31.485 163.242 32 163.562 32.36C163.892 32.72 164.302 32.9 164.792 32.9ZM174.343 35.12C173.523 35.12 172.783 34.945 172.123 34.595C171.473 34.245 170.958 33.745 170.578 33.095C170.208 32.445 170.023 31.685 170.023 30.815C170.023 29.955 170.213 29.2 170.593 28.55C170.973 27.89 171.493 27.385 172.153 27.035C172.813 26.685 173.553 26.51 174.373 26.51C175.193 26.51 175.933 26.685 176.593 27.035C177.253 27.385 177.773 27.89 178.153 28.55C178.533 29.2 178.723 29.955 178.723 30.815C178.723 31.675 178.528 32.435 178.138 33.095C177.758 33.745 177.233 34.245 176.563 34.595C175.903 34.945 175.163 35.12 174.343 35.12ZM174.343 32.9C174.833 32.9 175.248 32.72 175.588 32.36C175.938 32 176.113 31.485 176.113 30.815C176.113 30.145 175.943 29.63 175.603 29.27C175.273 28.91 174.863 28.73 174.373 28.73C173.873 28.73 173.458 28.91 173.128 29.27C172.798 29.62 172.633 30.135 172.633 30.815C172.633 31.485 172.793 32 173.113 32.36C173.443 32.72 173.853 32.9 174.343 32.9ZM183.263 26.51C183.853 26.51 184.368 26.63 184.808 26.87C185.258 27.11 185.603 27.425 185.843 27.815V26.63H188.408V34.985C188.408 35.755 188.253 36.45 187.943 37.07C187.643 37.7 187.178 38.2 186.548 38.57C185.928 38.94 185.153 39.125 184.223 39.125C182.983 39.125 181.978 38.83 181.208 38.24C180.438 37.66 179.998 36.87 179.888 35.87H182.423C182.503 36.19 182.693 36.44 182.993 36.62C183.293 36.81 183.663 36.905 184.103 36.905C184.633 36.905 185.053 36.75 185.363 36.44C185.683 36.14 185.843 35.655 185.843 34.985V33.8C185.593 34.19 185.248 34.51 184.808 34.76C184.368 35 183.853 35.12 183.263 35.12C182.573 35.12 181.948 34.945 181.388 34.595C180.828 34.235 180.383 33.73 180.053 33.08C179.733 32.42 179.573 31.66 179.573 30.8C179.573 29.94 179.733 29.185 180.053 28.535C180.383 27.885 180.828 27.385 181.388 27.035C181.948 26.685 182.573 26.51 183.263 26.51ZM185.843 30.815C185.843 30.175 185.663 29.67 185.303 29.3C184.953 28.93 184.523 28.745 184.013 28.745C183.503 28.745 183.068 28.93 182.708 29.3C182.358 29.66 182.183 30.16 182.183 30.8C182.183 31.44 182.358 31.95 182.708 32.33C183.068 32.7 183.503 32.885 184.013 32.885C184.523 32.885 184.953 32.7 185.303 32.33C185.663 31.96 185.843 31.455 185.843 30.815ZM192.829 23.9V35H190.264V23.9H192.829ZM202.578 30.68C202.578 30.92 202.563 31.17 202.533 31.43H196.728C196.768 31.95 196.933 32.35 197.223 32.63C197.523 32.9 197.888 33.035 198.318 33.035C198.958 33.035 199.403 32.765 199.653 32.225H202.383C202.243 32.775 201.988 33.27 201.618 33.71C201.258 34.15 200.803 34.495 200.253 34.745C199.703 34.995 199.088 35.12 198.408 35.12C197.588 35.12 196.858 34.945 196.218 34.595C195.578 34.245 195.078 33.745 194.718 33.095C194.358 32.445 194.178 31.685 194.178 30.815C194.178 29.945 194.353 29.185 194.703 28.535C195.063 27.885 195.563 27.385 196.203 27.035C196.843 26.685 197.578 26.51 198.408 26.51C199.218 26.51 199.938 26.68 200.568 27.02C201.198 27.36 201.688 27.845 202.038 28.475C202.398 29.105 202.578 29.84 202.578 30.68ZM199.953 30.005C199.953 29.565 199.803 29.215 199.503 28.955C199.203 28.695 198.828 28.565 198.378 28.565C197.948 28.565 197.583 28.69 197.283 28.94C196.993 29.19 196.813 29.545 196.743 30.005H199.953Z" fill="black" fill-opacity="0.54"/>
</g>
<defs>
<filter id="filter0_dd_296_847" x="0" y="0" width="290" height="62" filterUnits="userSpaceOnUse" color-interpolation-filters="sRGB">
<feFlood flood-opacity="0" result="BackgroundImageFix"/>
<feColorMatrix in="SourceAlpha" type="matrix" values="0 0 0 0 0 0 0 0 0 0 0 0 0 0 0 0 0 0 127 0" result="hardAlpha"/>
<feOffset dy="2"/>
<feGaussianBlur stdDeviation="1.5"/>
<feColorMatrix type="matrix" values="0 0 0 0 0 0 0 0 0 0 0 0 0 0 0 0 0 0 0.168 0"/>
<feBlend mode="normal" in2="BackgroundImageFix" result="effect1_dropShadow_296_847"/>
<feColorMatrix in="SourceAlpha" type="matrix" values="0 0 0 0 0 0 0 0 0 0 0 0 0 0 0 0 0 0 127 0" result="hardAlpha"/>
<feOffset/>
<feGaussianBlur stdDeviation="1.5"/>
<feColorMatrix type="matrix" values="0 0 0 0 0 0 0 0 0 0 0 0 0 0 0 0 0 0 0.084 0"/>
<feBlend mode="normal" in2="effect1_dropShadow_296_847" result="effect2_dropShadow_296_847"/>
<feBlend mode="normal" in="SourceGraphic" in2="effect2_dropShadow_296_847" result="shape"/>
</filter>
</defs>
</svg>
