<svg width="284" height="54" viewBox="0 0 284 54" fill="none" xmlns="http://www.w3.org/2000/svg">
<rect width="284" height="54" rx="10" fill="#1877F2"/>
<g clip-path="url(#clip0_296_846)">
<rect width="24" height="24" transform="translate(15 15)" fill="#1877F2"/>
<path d="M38.5 27.0699C38.5 20.7186 33.3513 15.5699 27 15.5699C20.6487 15.5699 15.5 20.7186 15.5 27.0699C15.5 32.8098 19.7054 37.5674 25.2031 38.4301V30.3941H22.2832V27.0699H25.2031V24.5363C25.2031 21.6541 26.92 20.062 29.5468 20.062C30.805 20.062 32.1211 20.2866 32.1211 20.2866V23.1167H30.671C29.2424 23.1167 28.7969 24.0032 28.7969 24.9126V27.0699H31.9863L31.4765 30.3941H28.7969V38.4301C34.2946 37.5674 38.5 32.8098 38.5 27.0699Z" fill="white"/>
</g>
<path d="M58.74 32.105C57.97 32.105 57.28 31.98 56.67 31.73C56.06 31.48 55.57 31.11 55.2 30.62C54.84 30.13 54.65 29.54 54.63 28.85H57.36C57.4 29.24 57.535 29.54 57.765 29.75C57.995 29.95 58.295 30.05 58.665 30.05C59.045 30.05 59.345 29.965 59.565 29.795C59.785 29.615 59.895 29.37 59.895 29.06C59.895 28.8 59.805 28.585 59.625 28.415C59.455 28.245 59.24 28.105 58.98 27.995C58.73 27.885 58.37 27.76 57.9 27.62C57.22 27.41 56.665 27.2 56.235 26.99C55.805 26.78 55.435 26.47 55.125 26.06C54.815 25.65 54.66 25.115 54.66 24.455C54.66 23.475 55.015 22.71 55.725 22.16C56.435 21.6 57.36 21.32 58.5 21.32C59.66 21.32 60.595 21.6 61.305 22.16C62.015 22.71 62.395 23.48 62.445 24.47H59.67C59.65 24.13 59.525 23.865 59.295 23.675C59.065 23.475 58.77 23.375 58.41 23.375C58.1 23.375 57.85 23.46 57.66 23.63C57.47 23.79 57.375 24.025 57.375 24.335C57.375 24.675 57.535 24.94 57.855 25.13C58.175 25.32 58.675 25.525 59.355 25.745C60.035 25.975 60.585 26.195 61.005 26.405C61.435 26.615 61.805 26.92 62.115 27.32C62.425 27.72 62.58 28.235 62.58 28.865C62.58 29.465 62.425 30.01 62.115 30.5C61.815 30.99 61.375 31.38 60.795 31.67C60.215 31.96 59.53 32.105 58.74 32.105ZM65.4485 22.76C64.9985 22.76 64.6285 22.63 64.3385 22.37C64.0585 22.1 63.9185 21.77 63.9185 21.38C63.9185 20.98 64.0585 20.65 64.3385 20.39C64.6285 20.12 64.9985 19.985 65.4485 19.985C65.8885 19.985 66.2485 20.12 66.5285 20.39C66.8185 20.65 66.9635 20.98 66.9635 21.38C66.9635 21.77 66.8185 22.1 66.5285 22.37C66.2485 22.63 65.8885 22.76 65.4485 22.76ZM66.7235 23.63V32H64.1585V23.63H66.7235ZM71.7623 23.51C72.3523 23.51 72.8673 23.63 73.3073 23.87C73.7573 24.11 74.1023 24.425 74.3423 24.815V23.63H76.9073V31.985C76.9073 32.755 76.7523 33.45 76.4423 34.07C76.1423 34.7 75.6773 35.2 75.0473 35.57C74.4273 35.94 73.6523 36.125 72.7223 36.125C71.4823 36.125 70.4773 35.83 69.7073 35.24C68.9373 34.66 68.4973 33.87 68.3873 32.87H70.9223C71.0023 33.19 71.1923 33.44 71.4923 33.62C71.7923 33.81 72.1623 33.905 72.6023 33.905C73.1323 33.905 73.5523 33.75 73.8623 33.44C74.1823 33.14 74.3423 32.655 74.3423 31.985V30.8C74.0923 31.19 73.7473 31.51 73.3073 31.76C72.8673 32 72.3523 32.12 71.7623 32.12C71.0723 32.12 70.4473 31.945 69.8873 31.595C69.3273 31.235 68.8823 30.73 68.5523 30.08C68.2323 29.42 68.0723 28.66 68.0723 27.8C68.0723 26.94 68.2323 26.185 68.5523 25.535C68.8823 24.885 69.3273 24.385 69.8873 24.035C70.4473 23.685 71.0723 23.51 71.7623 23.51ZM74.3423 27.815C74.3423 27.175 74.1623 26.67 73.8023 26.3C73.4523 25.93 73.0223 25.745 72.5123 25.745C72.0023 25.745 71.5673 25.93 71.2073 26.3C70.8573 26.66 70.6823 27.16 70.6823 27.8C70.6823 28.44 70.8573 28.95 71.2073 29.33C71.5673 29.7 72.0023 29.885 72.5123 29.885C73.0223 29.885 73.4523 29.7 73.8023 29.33C74.1623 28.96 74.3423 28.455 74.3423 27.815ZM83.863 23.54C84.843 23.54 85.623 23.86 86.203 24.5C86.793 25.13 87.088 26 87.088 27.11V32H84.538V27.455C84.538 26.895 84.393 26.46 84.103 26.15C83.813 25.84 83.423 25.685 82.933 25.685C82.443 25.685 82.053 25.84 81.763 26.15C81.473 26.46 81.328 26.895 81.328 27.455V32H78.763V23.63H81.328V24.74C81.588 24.37 81.938 24.08 82.378 23.87C82.818 23.65 83.313 23.54 83.863 23.54ZM94.6141 21.47V32H92.0491V21.47H94.6141ZM101.573 23.54C102.553 23.54 103.333 23.86 103.913 24.5C104.503 25.13 104.798 26 104.798 27.11V32H102.248V27.455C102.248 26.895 102.103 26.46 101.813 26.15C101.523 25.84 101.133 25.685 100.643 25.685C100.153 25.685 99.763 25.84 99.473 26.15C99.183 26.46 99.038 26.895 99.038 27.455V32H96.473V23.63H99.038V24.74C99.298 24.37 99.648 24.08 100.088 23.87C100.528 23.65 101.023 23.54 101.573 23.54ZM121.774 23.63L119.509 32H116.674L115.354 26.57L113.989 32H111.169L108.889 23.63H111.454L112.639 29.615L114.049 23.63H116.764L118.189 29.585L119.359 23.63H121.774ZM124.042 22.76C123.592 22.76 123.222 22.63 122.932 22.37C122.652 22.1 122.512 21.77 122.512 21.38C122.512 20.98 122.652 20.65 122.932 20.39C123.222 20.12 123.592 19.985 124.042 19.985C124.482 19.985 124.842 20.12 125.122 20.39C125.412 20.65 125.557 20.98 125.557 21.38C125.557 21.77 125.412 22.1 125.122 22.37C124.842 22.63 124.482 22.76 124.042 22.76ZM125.317 23.63V32H122.752V23.63H125.317ZM131.841 29.825V32H130.536C129.606 32 128.881 31.775 128.361 31.325C127.841 30.865 127.581 30.12 127.581 29.09V25.76H126.561V23.63H127.581V21.59H130.146V23.63H131.826V25.76H130.146V29.12C130.146 29.37 130.206 29.55 130.326 29.66C130.446 29.77 130.646 29.825 130.926 29.825H131.841ZM138.415 23.54C139.375 23.54 140.145 23.86 140.725 24.5C141.305 25.13 141.595 26 141.595 27.11V32H139.045V27.455C139.045 26.895 138.9 26.46 138.61 26.15C138.32 25.84 137.93 25.685 137.44 25.685C136.95 25.685 136.56 25.84 136.27 26.15C135.98 26.46 135.835 26.895 135.835 27.455V32H133.27V20.9H135.835V24.755C136.095 24.385 136.45 24.09 136.9 23.87C137.35 23.65 137.855 23.54 138.415 23.54ZM153.411 21.47V23.525H149.121V25.745H152.331V27.74H149.121V32H146.556V21.47H153.411ZM154.249 27.8C154.249 26.94 154.409 26.185 154.729 25.535C155.059 24.885 155.504 24.385 156.064 24.035C156.624 23.685 157.249 23.51 157.939 23.51C158.529 23.51 159.044 23.63 159.484 23.87C159.934 24.11 160.279 24.425 160.519 24.815V23.63H163.084V32H160.519V30.815C160.269 31.205 159.919 31.52 159.469 31.76C159.029 32 158.514 32.12 157.924 32.12C157.244 32.12 156.624 31.945 156.064 31.595C155.504 31.235 155.059 30.73 154.729 30.08C154.409 29.42 154.249 28.66 154.249 27.8ZM160.519 27.815C160.519 27.175 160.339 26.67 159.979 26.3C159.629 25.93 159.199 25.745 158.689 25.745C158.179 25.745 157.744 25.93 157.384 26.3C157.034 26.66 156.859 27.16 156.859 27.8C156.859 28.44 157.034 28.95 157.384 29.33C157.744 29.7 158.179 29.885 158.689 29.885C159.199 29.885 159.629 29.7 159.979 29.33C160.339 28.96 160.519 28.455 160.519 27.815ZM164.43 27.815C164.43 26.945 164.605 26.185 164.955 25.535C165.315 24.885 165.81 24.385 166.44 24.035C167.08 23.685 167.81 23.51 168.63 23.51C169.68 23.51 170.555 23.785 171.255 24.335C171.965 24.885 172.43 25.66 172.65 26.66H169.92C169.69 26.02 169.245 25.7 168.585 25.7C168.115 25.7 167.74 25.885 167.46 26.255C167.18 26.615 167.04 27.135 167.04 27.815C167.04 28.495 167.18 29.02 167.46 29.39C167.74 29.75 168.115 29.93 168.585 29.93C169.245 29.93 169.69 29.61 169.92 28.97H172.65C172.43 29.95 171.965 30.72 171.255 31.28C170.545 31.84 169.67 32.12 168.63 32.12C167.81 32.12 167.08 31.945 166.44 31.595C165.81 31.245 165.315 30.745 164.955 30.095C164.605 29.445 164.43 28.685 164.43 27.815ZM181.912 27.68C181.912 27.92 181.897 28.17 181.867 28.43H176.062C176.102 28.95 176.267 29.35 176.557 29.63C176.857 29.9 177.222 30.035 177.652 30.035C178.292 30.035 178.737 29.765 178.987 29.225H181.717C181.577 29.775 181.322 30.27 180.952 30.71C180.592 31.15 180.137 31.495 179.587 31.745C179.037 31.995 178.422 32.12 177.742 32.12C176.922 32.12 176.192 31.945 175.552 31.595C174.912 31.245 174.412 30.745 174.052 30.095C173.692 29.445 173.512 28.685 173.512 27.815C173.512 26.945 173.687 26.185 174.037 25.535C174.397 24.885 174.897 24.385 175.537 24.035C176.177 23.685 176.912 23.51 177.742 23.51C178.552 23.51 179.272 23.68 179.902 24.02C180.532 24.36 181.022 24.845 181.372 25.475C181.732 26.105 181.912 26.84 181.912 27.68ZM179.287 27.005C179.287 26.565 179.137 26.215 178.837 25.955C178.537 25.695 178.162 25.565 177.712 25.565C177.282 25.565 176.917 25.69 176.617 25.94C176.327 26.19 176.147 26.545 176.077 27.005H179.287ZM185.83 24.815C186.07 24.425 186.415 24.11 186.865 23.87C187.315 23.63 187.83 23.51 188.41 23.51C189.1 23.51 189.725 23.685 190.285 24.035C190.845 24.385 191.285 24.885 191.605 25.535C191.935 26.185 192.1 26.94 192.1 27.8C192.1 28.66 191.935 29.42 191.605 30.08C191.285 30.73 190.845 31.235 190.285 31.595C189.725 31.945 189.1 32.12 188.41 32.12C187.82 32.12 187.305 32.005 186.865 31.775C186.425 31.535 186.08 31.22 185.83 30.83V32H183.265V20.9H185.83V24.815ZM189.49 27.8C189.49 27.16 189.31 26.66 188.95 26.3C188.6 25.93 188.165 25.745 187.645 25.745C187.135 25.745 186.7 25.93 186.34 26.3C185.99 26.67 185.815 27.175 185.815 27.815C185.815 28.455 185.99 28.96 186.34 29.33C186.7 29.7 187.135 29.885 187.645 29.885C188.155 29.885 188.59 29.7 188.95 29.33C189.31 28.95 189.49 28.44 189.49 27.8ZM197.256 32.12C196.436 32.12 195.696 31.945 195.036 31.595C194.386 31.245 193.871 30.745 193.491 30.095C193.121 29.445 192.936 28.685 192.936 27.815C192.936 26.955 193.126 26.2 193.506 25.55C193.886 24.89 194.406 24.385 195.066 24.035C195.726 23.685 196.466 23.51 197.286 23.51C198.106 23.51 198.846 23.685 199.506 24.035C200.166 24.385 200.686 24.89 201.066 25.55C201.446 26.2 201.636 26.955 201.636 27.815C201.636 28.675 201.441 29.435 201.051 30.095C200.671 30.745 200.146 31.245 199.476 31.595C198.816 31.945 198.076 32.12 197.256 32.12ZM197.256 29.9C197.746 29.9 198.161 29.72 198.501 29.36C198.851 29 199.026 28.485 199.026 27.815C199.026 27.145 198.856 26.63 198.516 26.27C198.186 25.91 197.776 25.73 197.286 25.73C196.786 25.73 196.371 25.91 196.041 26.27C195.711 26.62 195.546 27.135 195.546 27.815C195.546 28.485 195.706 29 196.026 29.36C196.356 29.72 196.766 29.9 197.256 29.9ZM206.806 32.12C205.986 32.12 205.246 31.945 204.586 31.595C203.936 31.245 203.421 30.745 203.041 30.095C202.671 29.445 202.486 28.685 202.486 27.815C202.486 26.955 202.676 26.2 203.056 25.55C203.436 24.89 203.956 24.385 204.616 24.035C205.276 23.685 206.016 23.51 206.836 23.51C207.656 23.51 208.396 23.685 209.056 24.035C209.716 24.385 210.236 24.89 210.616 25.55C210.996 26.2 211.186 26.955 211.186 27.815C211.186 28.675 210.991 29.435 210.601 30.095C210.221 30.745 209.696 31.245 209.026 31.595C208.366 31.945 207.626 32.12 206.806 32.12ZM206.806 29.9C207.296 29.9 207.711 29.72 208.051 29.36C208.401 29 208.576 28.485 208.576 27.815C208.576 27.145 208.406 26.63 208.066 26.27C207.736 25.91 207.326 25.73 206.836 25.73C206.336 25.73 205.921 25.91 205.591 26.27C205.261 26.62 205.096 27.135 205.096 27.815C205.096 28.485 205.256 29 205.576 29.36C205.906 29.72 206.316 29.9 206.806 29.9ZM217.662 32L215.112 28.49V32H212.547V20.9H215.112V27.035L217.647 23.63H220.812L217.332 27.83L220.842 32H217.662Z" fill="white"/>
<defs>
<clipPath id="clip0_296_846">
<rect width="24" height="24" fill="white" transform="translate(15 15)"/>
</clipPath>
</defs>
</svg>
