<svg width="284" height="54" viewBox="0 0 284 54" fill="none" xmlns="http://www.w3.org/2000/svg">
<rect width="284" height="54" rx="10" fill="#5B636A"/>
<rect width="24" height="24" transform="translate(15 15)" fill="#5B636A"/>
<path d="M36.2806 33.424C35.9328 34.2275 35.5211 34.9672 35.0441 35.6473C34.3938 36.5743 33.8614 37.216 33.4511 37.5724C32.8151 38.1573 32.1336 38.4569 31.4039 38.4739C30.88 38.4739 30.2483 38.3248 29.5129 38.0224C28.775 37.7214 28.097 37.5724 27.477 37.5724C26.8268 37.5724 26.1294 37.7214 25.3835 38.0224C24.6364 38.3248 24.0346 38.4824 23.5745 38.498C22.8747 38.5278 22.1772 38.2198 21.481 37.5724C21.0366 37.1848 20.4808 36.5204 19.815 35.5791C19.1006 34.574 18.5132 33.4084 18.0531 32.0795C17.5603 30.6442 17.3133 29.2543 17.3133 27.9087C17.3133 26.3673 17.6464 25.0379 18.3135 23.9239C18.8378 23.029 19.5353 22.3231 20.4083 21.8049C21.2812 21.2868 22.2245 21.0227 23.2403 21.0058C23.7961 21.0058 24.525 21.1777 25.4308 21.5156C26.334 21.8546 26.9139 22.0266 27.1682 22.0266C27.3583 22.0266 28.0026 21.8255 29.0948 21.4247C30.1276 21.0531 30.9993 20.8992 31.7134 20.9598C33.6485 21.116 35.1023 21.8788 36.0691 23.253C34.3385 24.3016 33.4824 25.7703 33.4994 27.6544C33.515 29.122 34.0474 30.3432 35.0937 31.3129C35.5679 31.7629 36.0975 32.1108 36.6867 32.3578C36.5589 32.7283 36.424 33.0833 36.2806 33.424ZM31.8426 15.9601C31.8426 17.1104 31.4224 18.1844 30.5847 19.1785C29.5739 20.3602 28.3513 21.0431 27.0254 20.9354C27.0085 20.7974 26.9987 20.6521 26.9987 20.4995C26.9987 19.3953 27.4794 18.2135 28.3331 17.2473C28.7593 16.758 29.3013 16.3512 29.9586 16.0267C30.6146 15.7071 31.235 15.5303 31.8185 15.5C31.8355 15.6538 31.8426 15.8076 31.8426 15.9601V15.9601Z" fill="white"/>
<path d="M58.74 32.105C57.97 32.105 57.28 31.98 56.67 31.73C56.06 31.48 55.57 31.11 55.2 30.62C54.84 30.13 54.65 29.54 54.63 28.85H57.36C57.4 29.24 57.535 29.54 57.765 29.75C57.995 29.95 58.295 30.05 58.665 30.05C59.045 30.05 59.345 29.965 59.565 29.795C59.785 29.615 59.895 29.37 59.895 29.06C59.895 28.8 59.805 28.585 59.625 28.415C59.455 28.245 59.24 28.105 58.98 27.995C58.73 27.885 58.37 27.76 57.9 27.62C57.22 27.41 56.665 27.2 56.235 26.99C55.805 26.78 55.435 26.47 55.125 26.06C54.815 25.65 54.66 25.115 54.66 24.455C54.66 23.475 55.015 22.71 55.725 22.16C56.435 21.6 57.36 21.32 58.5 21.32C59.66 21.32 60.595 21.6 61.305 22.16C62.015 22.71 62.395 23.48 62.445 24.47H59.67C59.65 24.13 59.525 23.865 59.295 23.675C59.065 23.475 58.77 23.375 58.41 23.375C58.1 23.375 57.85 23.46 57.66 23.63C57.47 23.79 57.375 24.025 57.375 24.335C57.375 24.675 57.535 24.94 57.855 25.13C58.175 25.32 58.675 25.525 59.355 25.745C60.035 25.975 60.585 26.195 61.005 26.405C61.435 26.615 61.805 26.92 62.115 27.32C62.425 27.72 62.58 28.235 62.58 28.865C62.58 29.465 62.425 30.01 62.115 30.5C61.815 30.99 61.375 31.38 60.795 31.67C60.215 31.96 59.53 32.105 58.74 32.105ZM65.4485 22.76C64.9985 22.76 64.6285 22.63 64.3385 22.37C64.0585 22.1 63.9185 21.77 63.9185 21.38C63.9185 20.98 64.0585 20.65 64.3385 20.39C64.6285 20.12 64.9985 19.985 65.4485 19.985C65.8885 19.985 66.2485 20.12 66.5285 20.39C66.8185 20.65 66.9635 20.98 66.9635 21.38C66.9635 21.77 66.8185 22.1 66.5285 22.37C66.2485 22.63 65.8885 22.76 65.4485 22.76ZM66.7235 23.63V32H64.1585V23.63H66.7235ZM71.7623 23.51C72.3523 23.51 72.8673 23.63 73.3073 23.87C73.7573 24.11 74.1023 24.425 74.3423 24.815V23.63H76.9073V31.985C76.9073 32.755 76.7523 33.45 76.4423 34.07C76.1423 34.7 75.6773 35.2 75.0473 35.57C74.4273 35.94 73.6523 36.125 72.7223 36.125C71.4823 36.125 70.4773 35.83 69.7073 35.24C68.9373 34.66 68.4973 33.87 68.3873 32.87H70.9223C71.0023 33.19 71.1923 33.44 71.4923 33.62C71.7923 33.81 72.1623 33.905 72.6023 33.905C73.1323 33.905 73.5523 33.75 73.8623 33.44C74.1823 33.14 74.3423 32.655 74.3423 31.985V30.8C74.0923 31.19 73.7473 31.51 73.3073 31.76C72.8673 32 72.3523 32.12 71.7623 32.12C71.0723 32.12 70.4473 31.945 69.8873 31.595C69.3273 31.235 68.8823 30.73 68.5523 30.08C68.2323 29.42 68.0723 28.66 68.0723 27.8C68.0723 26.94 68.2323 26.185 68.5523 25.535C68.8823 24.885 69.3273 24.385 69.8873 24.035C70.4473 23.685 71.0723 23.51 71.7623 23.51ZM74.3423 27.815C74.3423 27.175 74.1623 26.67 73.8023 26.3C73.4523 25.93 73.0223 25.745 72.5123 25.745C72.0023 25.745 71.5673 25.93 71.2073 26.3C70.8573 26.66 70.6823 27.16 70.6823 27.8C70.6823 28.44 70.8573 28.95 71.2073 29.33C71.5673 29.7 72.0023 29.885 72.5123 29.885C73.0223 29.885 73.4523 29.7 73.8023 29.33C74.1623 28.96 74.3423 28.455 74.3423 27.815ZM83.863 23.54C84.843 23.54 85.623 23.86 86.203 24.5C86.793 25.13 87.088 26 87.088 27.11V32H84.538V27.455C84.538 26.895 84.393 26.46 84.103 26.15C83.813 25.84 83.423 25.685 82.933 25.685C82.443 25.685 82.053 25.84 81.763 26.15C81.473 26.46 81.328 26.895 81.328 27.455V32H78.763V23.63H81.328V24.74C81.588 24.37 81.938 24.08 82.378 23.87C82.818 23.65 83.313 23.54 83.863 23.54ZM94.6141 21.47V32H92.0491V21.47H94.6141ZM101.573 23.54C102.553 23.54 103.333 23.86 103.913 24.5C104.503 25.13 104.798 26 104.798 27.11V32H102.248V27.455C102.248 26.895 102.103 26.46 101.813 26.15C101.523 25.84 101.133 25.685 100.643 25.685C100.153 25.685 99.763 25.84 99.473 26.15C99.183 26.46 99.038 26.895 99.038 27.455V32H96.473V23.63H99.038V24.74C99.298 24.37 99.648 24.08 100.088 23.87C100.528 23.65 101.023 23.54 101.573 23.54ZM121.774 23.63L119.509 32H116.674L115.354 26.57L113.989 32H111.169L108.889 23.63H111.454L112.639 29.615L114.049 23.63H116.764L118.189 29.585L119.359 23.63H121.774ZM124.042 22.76C123.592 22.76 123.222 22.63 122.932 22.37C122.652 22.1 122.512 21.77 122.512 21.38C122.512 20.98 122.652 20.65 122.932 20.39C123.222 20.12 123.592 19.985 124.042 19.985C124.482 19.985 124.842 20.12 125.122 20.39C125.412 20.65 125.557 20.98 125.557 21.38C125.557 21.77 125.412 22.1 125.122 22.37C124.842 22.63 124.482 22.76 124.042 22.76ZM125.317 23.63V32H122.752V23.63H125.317ZM131.841 29.825V32H130.536C129.606 32 128.881 31.775 128.361 31.325C127.841 30.865 127.581 30.12 127.581 29.09V25.76H126.561V23.63H127.581V21.59H130.146V23.63H131.826V25.76H130.146V29.12C130.146 29.37 130.206 29.55 130.326 29.66C130.446 29.77 130.646 29.825 130.926 29.825H131.841ZM138.415 23.54C139.375 23.54 140.145 23.86 140.725 24.5C141.305 25.13 141.595 26 141.595 27.11V32H139.045V27.455C139.045 26.895 138.9 26.46 138.61 26.15C138.32 25.84 137.93 25.685 137.44 25.685C136.95 25.685 136.56 25.84 136.27 26.15C135.98 26.46 135.835 26.895 135.835 27.455V32H133.27V20.9H135.835V24.755C136.095 24.385 136.45 24.09 136.9 23.87C137.35 23.65 137.855 23.54 138.415 23.54ZM153.111 30.14H149.181L148.551 32H145.866L149.676 21.47H152.646L156.456 32H153.741L153.111 30.14ZM152.451 28.16L151.146 24.305L149.856 28.16H152.451ZM160.181 24.815C160.431 24.425 160.776 24.11 161.216 23.87C161.656 23.63 162.171 23.51 162.761 23.51C163.451 23.51 164.076 23.685 164.636 24.035C165.196 24.385 165.636 24.885 165.956 25.535C166.286 26.185 166.451 26.94 166.451 27.8C166.451 28.66 166.286 29.42 165.956 30.08C165.636 30.73 165.196 31.235 164.636 31.595C164.076 31.945 163.451 32.12 162.761 32.12C162.181 32.12 161.666 32 161.216 31.76C160.776 31.52 160.431 31.21 160.181 30.83V35.99H157.616V23.63H160.181V24.815ZM163.841 27.8C163.841 27.16 163.661 26.66 163.301 26.3C162.951 25.93 162.516 25.745 161.996 25.745C161.486 25.745 161.051 25.93 160.691 26.3C160.341 26.67 160.166 27.175 160.166 27.815C160.166 28.455 160.341 28.96 160.691 29.33C161.051 29.7 161.486 29.885 161.996 29.885C162.506 29.885 162.941 29.7 163.301 29.33C163.661 28.95 163.841 28.44 163.841 27.8ZM170.361 24.815C170.611 24.425 170.956 24.11 171.396 23.87C171.836 23.63 172.351 23.51 172.941 23.51C173.631 23.51 174.256 23.685 174.816 24.035C175.376 24.385 175.816 24.885 176.136 25.535C176.466 26.185 176.631 26.94 176.631 27.8C176.631 28.66 176.466 29.42 176.136 30.08C175.816 30.73 175.376 31.235 174.816 31.595C174.256 31.945 173.631 32.12 172.941 32.12C172.361 32.12 171.846 32 171.396 31.76C170.956 31.52 170.611 31.21 170.361 30.83V35.99H167.796V23.63H170.361V24.815ZM174.021 27.8C174.021 27.16 173.841 26.66 173.481 26.3C173.131 25.93 172.696 25.745 172.176 25.745C171.666 25.745 171.231 25.93 170.871 26.3C170.521 26.67 170.346 27.175 170.346 27.815C170.346 28.455 170.521 28.96 170.871 29.33C171.231 29.7 171.666 29.885 172.176 29.885C172.686 29.885 173.121 29.7 173.481 29.33C173.841 28.95 174.021 28.44 174.021 27.8ZM180.542 20.9V32H177.977V20.9H180.542ZM190.291 27.68C190.291 27.92 190.276 28.17 190.246 28.43H184.441C184.481 28.95 184.646 29.35 184.936 29.63C185.236 29.9 185.601 30.035 186.031 30.035C186.671 30.035 187.116 29.765 187.366 29.225H190.096C189.956 29.775 189.701 30.27 189.331 30.71C188.971 31.15 188.516 31.495 187.966 31.745C187.416 31.995 186.801 32.12 186.121 32.12C185.301 32.12 184.571 31.945 183.931 31.595C183.291 31.245 182.791 30.745 182.431 30.095C182.071 29.445 181.891 28.685 181.891 27.815C181.891 26.945 182.066 26.185 182.416 25.535C182.776 24.885 183.276 24.385 183.916 24.035C184.556 23.685 185.291 23.51 186.121 23.51C186.931 23.51 187.651 23.68 188.281 24.02C188.911 24.36 189.401 24.845 189.751 25.475C190.111 26.105 190.291 26.84 190.291 27.68ZM187.666 27.005C187.666 26.565 187.516 26.215 187.216 25.955C186.916 25.695 186.541 25.565 186.091 25.565C185.661 25.565 185.296 25.69 184.996 25.94C184.706 26.19 184.526 26.545 184.456 27.005H187.666Z" fill="white"/>
</svg>
